<svg width="50" height="50" viewBox="0 0 50 50" fill="none" xmlns="http://www.w3.org/2000/svg">
<path fill-rule="evenodd" clip-rule="evenodd" d="M0.375426 25.5026C-0.125142 25.002 -0.125142 24.1904 0.375425 23.6899L16.6899 7.37543C17.1904 6.87486 18.002 6.87486 18.5026 7.37543L19.8943 8.76717C20.3949 9.26773 20.3949 10.0793 19.8943 10.5799L6.78434 23.6899C6.28377 24.1904 6.28377 25.002 6.78434 25.5026L19.8943 38.6125C20.3949 39.1131 20.3949 39.9247 19.8943 40.4253L18.5026 41.817C18.002 42.3176 17.1904 42.3176 16.6899 41.817L0.375426 25.5026ZM48.6246 23.6899C49.1252 24.1904 49.1252 25.002 48.6246 25.5026L32.3102 41.817C31.8096 42.3176 30.998 42.3176 30.4975 41.817L29.1057 40.4253C28.6052 39.9247 28.6052 39.1131 29.1057 38.6125L42.2157 25.5026C42.7163 25.002 42.7163 24.1904 42.2157 23.6899L29.1057 10.5799C28.6052 10.0793 28.6052 9.26774 29.1057 8.76717L30.4975 7.37543C30.998 6.87486 31.8096 6.87486 32.3102 7.37543L48.6246 23.6899Z" fill="black"/>
</svg>
