<svg width="123" height="39" viewBox="0 0 123 39" fill="none" xmlns="http://www.w3.org/2000/svg">
<path d="M0.719971 28.9995V0.99953H5.83997V12.6395H18.4V0.99953H23.52V28.9995H18.4V16.7995H5.83997V28.9995H0.719971Z" fill="black"/>
<path d="M41.6422 29.4795C38.8155 29.4795 36.3888 28.8795 34.3622 27.6795C32.3355 26.4529 30.7755 24.7595 29.6822 22.5995C28.5888 20.4129 28.0422 17.8929 28.0422 15.0395C28.0422 12.1862 28.5888 9.6662 29.6822 7.47953C30.7755 5.29286 32.3355 3.5862 34.3622 2.35953C36.3888 1.13286 38.8155 0.519531 41.6422 0.519531C45.0022 0.519531 47.7488 1.35953 49.8822 3.03953C52.0422 4.69286 53.3888 7.0262 53.9222 10.0395H48.2822C47.9355 8.51953 47.1888 7.33286 46.0422 6.47953C44.9222 5.59953 43.4288 5.15953 41.5622 5.15953C38.9755 5.15953 36.9488 6.03953 35.4822 7.79953C34.0155 9.55953 33.2822 11.9729 33.2822 15.0395C33.2822 18.1062 34.0155 20.5195 35.4822 22.2795C36.9488 24.0129 38.9755 24.8795 41.5622 24.8795C43.4288 24.8795 44.9222 24.4795 46.0422 23.6795C47.1888 22.8529 47.9355 21.7195 48.2822 20.2795H53.9222C53.3888 23.1595 52.0422 25.4129 49.8822 27.0395C47.7488 28.6662 45.0022 29.4795 41.6422 29.4795Z" fill="black"/>
<path d="M58.72 38.9995V10.9995H68.28C71.56 10.9995 74.2533 11.5862 76.36 12.7595C78.4933 13.9062 80.0666 15.5329 81.08 17.6395C82.12 19.7195 82.64 22.1729 82.64 24.9995C82.64 27.8262 82.12 30.2929 81.08 32.3995C80.0666 34.4795 78.4933 36.1062 76.36 37.2795C74.2533 38.4262 71.56 38.9995 68.28 38.9995H58.72ZM63.84 34.5995H68.04C70.3866 34.5995 72.24 34.2262 73.6 33.4795C74.96 32.7062 75.9333 31.6129 76.52 30.1995C77.1066 28.7595 77.4 27.0262 77.4 24.9995C77.4 22.9995 77.1066 21.2795 76.52 19.8395C75.9333 18.3995 74.96 17.2929 73.6 16.5195C72.24 15.7462 70.3866 15.3595 68.04 15.3595H63.84V34.5995Z" fill="black"/>
<path d="M91.6265 38.9995L84.2265 10.9995H89.7065L94.7465 33.2795L100.667 10.9995H106.307L112.067 33.2795L117.107 10.9995H122.627L115.027 38.9995H108.947L103.387 18.2395L97.6665 38.9995H91.6265Z" fill="black"/>
</svg>
